<mxfile host="app.diagrams.net" modified="2021-06-04T06:24:35.575Z" agent="5.0 (Macintosh; Intel Mac OS X 10_15_7) AppleWebKit/605.1.15 (KHTML, like Gecko) Version/14.1 Safari/605.1.15" etag="6kdJm1gSy5MY1hNOT4NL" version="14.7.2" type="github">
  <diagram id="vKbUwxo1MqHwIejEkIgE" name="Page-1">
    <mxGraphModel dx="1186" dy="639" grid="1" gridSize="10" guides="1" tooltips="1" connect="1" arrows="1" fold="1" page="1" pageScale="1" pageWidth="827" pageHeight="1169" math="0" shadow="0">
      <root>
        <mxCell id="0" />
        <mxCell id="1" parent="0" />
        <mxCell id="PLnsZp9h5eiOmce0l13E-1" style="edgeStyle=orthogonalEdgeStyle;rounded=0;orthogonalLoop=1;jettySize=auto;html=1;exitX=0.5;exitY=1;exitDx=0;exitDy=0;exitPerimeter=0;entryX=0.5;entryY=0;entryDx=0;entryDy=0;" edge="1" parent="1" source="PLnsZp9h5eiOmce0l13E-2">
          <mxGeometry relative="1" as="geometry">
            <mxPoint x="360" y="140" as="targetPoint" />
          </mxGeometry>
        </mxCell>
        <mxCell id="PLnsZp9h5eiOmce0l13E-2" value="Start" style="strokeWidth=1;html=1;shape=mxgraph.flowchart.terminator;whiteSpace=wrap;" vertex="1" parent="1">
          <mxGeometry x="320" y="90" width="80" height="30" as="geometry" />
        </mxCell>
        <mxCell id="PLnsZp9h5eiOmce0l13E-4" value="Declarations&lt;br&gt;int i=0" style="rounded=0;whiteSpace=wrap;html=1;strokeWidth=1;" vertex="1" parent="1">
          <mxGeometry x="300" y="140" width="120" height="60" as="geometry" />
        </mxCell>
        <mxCell id="PLnsZp9h5eiOmce0l13E-5" style="edgeStyle=orthogonalEdgeStyle;rounded=0;orthogonalLoop=1;jettySize=auto;html=1;entryX=0.5;entryY=0;entryDx=0;entryDy=0;exitX=0.5;exitY=1;exitDx=0;exitDy=0;" edge="1" parent="1" source="PLnsZp9h5eiOmce0l13E-4" target="PLnsZp9h5eiOmce0l13E-11">
          <mxGeometry relative="1" as="geometry">
            <mxPoint x="360" y="220" as="sourcePoint" />
          </mxGeometry>
        </mxCell>
        <mxCell id="PLnsZp9h5eiOmce0l13E-6" value="&amp;nbsp;i++" style="rounded=0;whiteSpace=wrap;html=1;strokeWidth=1;" vertex="1" parent="1">
          <mxGeometry x="390" y="230" width="120" height="50" as="geometry" />
        </mxCell>
        <mxCell id="PLnsZp9h5eiOmce0l13E-11" value="is i &amp;lt; 50" style="rhombus;whiteSpace=wrap;html=1;strokeWidth=1;" vertex="1" parent="1">
          <mxGeometry x="305" y="320" width="110" height="100" as="geometry" />
        </mxCell>
        <mxCell id="PLnsZp9h5eiOmce0l13E-12" value="End" style="strokeWidth=1;html=1;shape=mxgraph.flowchart.terminator;whiteSpace=wrap;" vertex="1" parent="1">
          <mxGeometry x="325" y="540" width="70" height="45" as="geometry" />
        </mxCell>
        <mxCell id="PLnsZp9h5eiOmce0l13E-13" value="" style="endArrow=classic;html=1;exitX=0.5;exitY=1;exitDx=0;exitDy=0;" edge="1" parent="1" source="PLnsZp9h5eiOmce0l13E-11">
          <mxGeometry relative="1" as="geometry">
            <mxPoint x="335" y="450" as="sourcePoint" />
            <mxPoint x="360" y="450" as="targetPoint" />
          </mxGeometry>
        </mxCell>
        <mxCell id="PLnsZp9h5eiOmce0l13E-14" value="Yes" style="edgeLabel;resizable=0;html=1;align=center;verticalAlign=middle;" connectable="0" vertex="1" parent="PLnsZp9h5eiOmce0l13E-13">
          <mxGeometry relative="1" as="geometry">
            <mxPoint x="76" y="-54" as="offset" />
          </mxGeometry>
        </mxCell>
        <mxCell id="PLnsZp9h5eiOmce0l13E-15" style="edgeStyle=orthogonalEdgeStyle;rounded=0;orthogonalLoop=1;jettySize=auto;html=1;exitX=0.5;exitY=0;exitDx=0;exitDy=0;entryX=1;entryY=0.5;entryDx=0;entryDy=0;" edge="1" parent="1" source="PLnsZp9h5eiOmce0l13E-16" target="PLnsZp9h5eiOmce0l13E-6">
          <mxGeometry relative="1" as="geometry">
            <mxPoint x="525" y="260" as="targetPoint" />
            <Array as="points">
              <mxPoint x="538" y="255" />
            </Array>
          </mxGeometry>
        </mxCell>
        <mxCell id="PLnsZp9h5eiOmce0l13E-16" value="call TestDocumentCreation();" style="rounded=0;whiteSpace=wrap;html=1;strokeWidth=1;" vertex="1" parent="1">
          <mxGeometry x="465" y="340" width="145" height="60" as="geometry" />
        </mxCell>
        <mxCell id="PLnsZp9h5eiOmce0l13E-17" value="" style="endArrow=classic;html=1;entryX=0;entryY=0.5;entryDx=0;entryDy=0;" edge="1" parent="1" target="PLnsZp9h5eiOmce0l13E-16">
          <mxGeometry relative="1" as="geometry">
            <mxPoint x="415" y="370" as="sourcePoint" />
            <mxPoint x="515" y="370" as="targetPoint" />
          </mxGeometry>
        </mxCell>
        <mxCell id="PLnsZp9h5eiOmce0l13E-18" value="No" style="edgeLabel;resizable=0;html=1;align=center;verticalAlign=middle;" connectable="0" vertex="1" parent="PLnsZp9h5eiOmce0l13E-17">
          <mxGeometry relative="1" as="geometry">
            <mxPoint x="-61" y="61" as="offset" />
          </mxGeometry>
        </mxCell>
        <mxCell id="PLnsZp9h5eiOmce0l13E-20" value="" style="endArrow=classic;html=1;" edge="1" parent="1">
          <mxGeometry width="50" height="50" relative="1" as="geometry">
            <mxPoint x="390" y="260" as="sourcePoint" />
            <mxPoint x="360" y="260" as="targetPoint" />
          </mxGeometry>
        </mxCell>
        <mxCell id="PLnsZp9h5eiOmce0l13E-21" value="Output &quot;Test document creation process complete.&quot;" style="rounded=0;whiteSpace=wrap;html=1;strokeWidth=1;" vertex="1" parent="1">
          <mxGeometry x="294" y="450" width="120" height="50" as="geometry" />
        </mxCell>
        <mxCell id="PLnsZp9h5eiOmce0l13E-22" value="" style="endArrow=classic;html=1;" edge="1" parent="1">
          <mxGeometry width="50" height="50" relative="1" as="geometry">
            <mxPoint x="359.5" y="500" as="sourcePoint" />
            <mxPoint x="359.5" y="540" as="targetPoint" />
          </mxGeometry>
        </mxCell>
      </root>
    </mxGraphModel>
  </diagram>
</mxfile>
